<?xml version="1.0" encoding="utf-8"?>
<!-- Generator: Adobe Illustrator 23.0.3, SVG Export Plug-In . SVG Version: 6.00 Build 0)  -->
<svg version="1.1" id="Layer_3" xmlns="http://www.w3.org/2000/svg" xmlns:xlink="http://www.w3.org/1999/xlink" x="0px" y="0px"
	 viewBox="0 0 1120 690" style="enable-background:new 0 0 1120 690;" xml:space="preserve">
<style type="text/css">
	.st0{fill:#FFFFFF;}
</style>
<path class="st0" d="M446.5,342c-0.5,14.4-1.2,26.6-10,36.3c-9.7,10.6-21.5,9.8-33.8,5.5c-11.2-3.8-19.2-11-27.1-20
	c-1.7-2-3.7-5.5-4.1-6.2c1,1,4.5,3.3,6.3,4.3c9,5.3,12.4,7.6,24.9,9.7c17.2,3.3,32.3-11.2,34.6-26.5c2.3-15.7,0-31-3.7-46.2
	c-0.2-0.8,0.2-1.7,0.3-2.6c1,0.8,2.6,1.3,2.9,2.3c2.6,7.5,5.5,14.9,7.1,22.6C445.7,328.6,445.9,336.4,446.5,342z"/>
<path class="st0" d="M342.4,230.5c4.6,1.8,10.6,3.5,15.9,6.4c1.9,1,3.9,5.9,3.1,7c-1.6,2.1-5.7,4.5-7.7,3.8
	c-7.3-2.4-14.3-5.9-21.3-9.3c-1.1-0.5-2-2.8-1.8-4.1c0.2-0.9,2.2-1.8,3.6-2.2C336.4,231.4,338.7,231.2,342.4,230.5z"/>
<path class="st0" d="M523.4,70.6c-2.5,6.2-4.6,11.4-6.8,16.7c-1.8,4.3-3.6,8.7-5.5,13c-0.3,0.7-1,1.2-1.5,1.8
	c-0.1-0.4-0.3-0.9-0.3-1.3c1.3-10.5,2.4-21,4.1-31.5c0.3-1.8,3-3.3,4.5-4.9C519.8,66.4,521.5,68.4,523.4,70.6z"/>
<path class="st0" d="M390.6,238.2c-1.1-0.4-2.1-1-3.2-1.1c-1.8-0.1-3.6,0.1-5.4,0.1c0.6,1.3,1.5,2.5,1.8,3.9
	c0.2,1.1-0.4,2.3-0.6,3.5c-0.9-0.4-2.2-0.5-2.8-1.2c-1.7-2.1-3.7-4.3-4.5-6.9c-0.3-1,1.9-4.2,2.9-4.1c4.2,0.1,8.4,0.9,12.5,1.7
	c1,0.2,2.8,1,2.8,1.5c0,1.6-0.7,3.2-1.1,4.8C392.2,239.6,391.4,238.9,390.6,238.2z"/>
<path class="st0" d="M378.8,226.3c-5.7-1.3-11.1-2.5-16.4-4c-1-0.3-1.6-2.2-2.4-3.4c1.4-0.5,2.9-1.7,4.1-1.4c5,1.2,10,2.8,14.9,4.5
	c1.3,0.4,2.2,1.8,3.3,2.8C381,225.3,379.8,225.9,378.8,226.3z"/>
<path class="st0" d="M387.3,251.5c2.4,1.8,4.6,3.6,6.9,5.4c-0.9,0.7-2.4,2.1-2.8,1.9c-2.4-1.6-4.6-3.6-6.8-5.4
	C385.4,252.9,386.2,252.3,387.3,251.5z"/>
<path class="st0" d="M377.2,255.7c2,3,3.6,5.3,5,7.6c0.1,0.1-1.6,1.6-1.6,1.5c-2.1-1.8-4.1-3.8-6-5.8
	C374.4,258.9,375.7,257.5,377.2,255.7z"/>
<path class="st0" d="M403.8,248.1c-2.3,0.9-3.6,1.8-4.1,1.5c-2.2-1.6-4.2-3.5-6.3-5.3c0.7-0.4,1.7-1.4,2.2-1.2
	C398,244.4,400.3,245.9,403.8,248.1z"/>
<path class="st0" d="M401.3,232.6c2.5,1.6,4.7,3.1,6.8,4.7c0,0-1.1,1.7-1.7,2.5c-2.3-1.6-4.7-3.2-7-4.8
	C400,234.4,400.6,233.6,401.3,232.6z"/>
</svg>
