<?xml version="1.0" encoding="utf-8"?>
<!-- Generator: Adobe Illustrator 23.0.3, SVG Export Plug-In . SVG Version: 6.00 Build 0)  -->
<svg version="1.1" id="Layer_3" xmlns="http://www.w3.org/2000/svg" xmlns:xlink="http://www.w3.org/1999/xlink" x="0px" y="0px"
	 viewBox="0 0 1120 690" style="enable-background:new 0 0 1120 690;" xml:space="preserve">
<style type="text/css">
	.st0{fill:#FFFFFF;}
</style>
<g>
	<path class="st0" d="M860.8,546.7c-4.4,2.1-7.6,5-10.7,4.9c-6.4,0-6.4-6.3-8.1-11.4c-0.5,0.8-0.8,1.2-1,1.7
		c-0.2,0.6-0.5,1.2-0.5,1.8c-0.4,9-0.7,17.9-1.1,26.9c-0.3,5.9-0.4,11.9-1.1,17.8c-0.2,1.9-2.1,4.7-3.7,5.1c-2,0.5-5.2-0.4-6.6-1.9
		c-3.8-4.1-7.5-8.5-10.3-13.4c-6.3-10.7-12.2-21.6-17.8-32.7c-2.8-5.4-4.6-11.3-7.1-16.9c-1.5-3.2-3.7-6-5.5-9c-0.5,0-1,0-1.5,0
		c-0.7,2.2-1.5,4.5-2.2,6.7c-0.2,0.6,0,1.3-0.1,2c-1.6,6.6-3.7,13.1-4.7,19.9c-1.2,8.6-1.7,17.4-2,26.1c-0.1,1.6,1.3,3.9,2.7,4.9
		c8.1,5.7,16.4,11.2,23.4,16c2.5-2.1,4.3-4.8,6.1-4.8c3.5,0,3.6,3.3,3.7,6.3c0.1,2.5,1.7,5.1,1.3,7.5c-0.8,5.3-2.4,10.4-3.9,15.5
		c-0.2,0.5-2.8,0.9-3.8,0.4c-1.2-0.6-2.8-2.7-2.5-3.4c3.7-9.9-4.8-12.2-10.2-16c-5.6-4-11.8-7.2-18.3-11.1c-0.7,13-1.4,25.9-2.1,39
		c1.2,0.2,2.2,0.1,2.7,0.5c1.6,1.4,4.3,3,4.4,4.6c0.3,3.8-3.1,3.2-5.7,3.3c-1.8,0.1-3.6,0.8-5.4,0.9c-1.9,0-5.3,0.1-5.6-0.7
		c-1.7-4.5-5.9-4.9-9.3-6c-3.2-1-4.7-2.8-3.6-5.6c0.5-1.3,3.1-2.3,4.9-2.5c2-0.3,4.2,0.4,6.4,0.7c0.5-5.5,1-11.1,1.5-16.6
		c0.7-7.2,1.4-14.4,1.9-21.6c0.1-1-0.9-2.3-1.7-2.9c-2.3-1.8-4.9-3.2-8.1-5.3c-0.5,2.2-0.8,3.8-1.2,5.4c-1,3.7-3.1,5.4-6.9,3.6
		c-3.5-1.6-5.2,0.6-5.9,3.1c-1.9,6.5-1.9,6.7-8.7,2.5c-10.2-6.3-20.5-12.6-30.6-19.1c-21.1-13.6-42.3-27-63-41.1
		c-12-8.1-23.2-17.4-34.8-26.1c0.2-0.6,0.5-1.2,0.7-1.8c11.6-0.6,23.2-1.4,34.8-1.8c7.8-0.3,15.7,0.1,23.5-0.1
		c8.6-0.2,17.2-0.6,25.8-1c1.3-0.1,2.6-0.8,3.7-1.1c-27.5-44.6-54.9-89-82.3-133.3c0.2-0.3,0.4-0.7,0.5-1c2.1,0.9,4.4,1.6,6.3,2.8
		c16.2,10.7,32.3,21.6,48.4,32.4c3.8,2.5,7.7,4.9,11.7,7.1c2.5,1.4,4.9,2.3,8.1,0.6c3.6-1.9,7.1-0.3,9.7,2.8c2,2.5,3.7,4.9,7.6,2.8
		c1-0.5,2.8,0.4,4.8,0.7c0.9-7.5,1.9-14.8,2.8-22.1c-9.9-6.4-16.9-17.6-30.4-17c5.2,11.2,15.1,19,24,28.2c-3.5,2.8-6.4,2.6-9.6,0.5
		c-11.3-7.5-20-17.5-26.9-29.1c-1.1-1.8-2.8-3.4-3.3-5.4c-0.5-2-0.5-4.7,0.5-6.3c0.6-1.1,3.5-1.6,5.2-1.3c3.4,0.6,6.8,1.8,10.8,1.9
		c-3.6-4.1-7.1-8.4-11-12.3c-0.6-0.6-3.4,0.4-4.9,1.3c-6.7,3.9-13.2,8.2-20,11.8c-2.3,1.2-5.6,1.2-8.4,0.8c-4.5-0.6-5.6-3.9-2.8-7.5
		c0.8-1,1.5-2.1,2.2-3.2c0.2,0.5,0.4,0.9,0.6,1.4c2.5-0.8,5.3-1.2,7.6-2.5c5.9-3.3,11.6-7.1,17.8-10.9
		c-8.5-11.7-20.7-20.7-26.2-34.6c16.9,2.5,25.1,15.9,35.5,27c8.9-7.2,19.2-11.2,32.6-9.2c-3.2-5.1-5.6-8.9-8.1-12.8
		c-0.9-1.4-2.5-2.6-2.7-4c-0.4-2.5-0.7-5.7,0.5-7.6c1.8-2.7,5.1-2.6,7.9-0.7c0.5,0.4,1,0.8,3.1,1c-0.7-18-1.3-36-2.1-55.5
		c4.1,5.5,7.6,9.8,10.8,14.3c14.2,20.3,28.7,40.5,42.4,61.2c8.9,13.6,16.6,28,24.8,42.1c0.8,1.3,0.8,3,1.5,5.7
		c3.2-3.5,5.8-6.1,8.1-9c10.4-12.9,20.6-25.9,31-38.8c5.7-7.1,11.3-14.3,17.3-21.1c1.3-1.5,4.7-2.3,6.6-1.8c1.5,0.5,3,3.6,3.1,5.5
		c0.7,21,1,42.1,1.8,63.2c0.1,3.4,1.7,6.9,3.2,10.2c0.5,1.1,2.8,2.2,4.2,2.1c12.8-0.9,25.5-2.1,38.8-3.2c-1.8-6.1-3.6-12.3-5.3-18.6
		c-1.1-3.9-2.4-7.8-2.8-11.8c-0.4-3.8-1.8-5.2-5.6-4.9c-3.6,0.3-7.4,0.4-11-0.1c-1.7-0.2-3-2.2-4.6-3.4c1.2-1.4,2.2-3.8,3.5-4
		c12.6-2,25.3-3.6,38-5.4c0.8-0.1,1.9-0.3,2.5,0.1c2.4,1.7,4.6,3.7,6.9,5.6c-2.3,1.1-4.6,2.6-7.1,3.2c-5.1,1.1-10.3,1.6-15.8,2.4
		c1.8,7,3.4,13.7,5.2,20.4c1.1,4.1,2.8,8,3.6,12.1c0.6,3.3,2.3,3.7,4.9,2.9c7.4-2.4,14.7-4.8,21.5-7c0.6-5.1,1.1-9.9,1.9-14.6
		c0.1-0.8,1.6-1.9,2.4-1.9c1.1,0,2.7,0.7,3.2,1.5c1,1.8,1.5,3.9,2.2,5.9c1.2,3.8,3.1,6.9,8.6,6.5c-6.7,8.7,2.8,14.7,2.5,22.2
		c-0.1,2.5-0.2,5-0.3,7.9c-11.6-2.7-12.4-12.7-17.1-19.5c-7.5,2.4-15.2,4.7-22.8,7.3c-1.3,0.5-3.1,3-2.7,4
		c4.5,14.2,9.3,28.3,14,42.3c9.2-0.2,17.8-8,27.9-2.4c-6,7.4-13.2,11.4-22.1,13c-5.2,0.9-10.3,2.7-15.5,4c-1.9,0.5-3.9,1.2-5.7,0.9
		c-1.7-0.3-4.4-1.7-4.5-2.7c-0.2-2.7-2.1-6.7,3.2-7.3c3.5-0.4,7-1.2,10.4-1.8c-5-13.6-9.9-26.7-14.5-39.1
		c-4.7,6.4-9.1,13.1-14.3,19.1c-1.3,1.6-5,1.1-7.6,1.6c0-2.2-0.6-4.7,0.2-6.6c1.3-3.3,3.4-6.2,5.1-9.3c0.6-1,0.9-2.1,1.9-4.4
		c-6.6,3-11.9,5.4-17.2,7.8c2.9,13.9,10.5,24.9,19.4,35.3c2.8,3.3,5.6,6.7,8,10.3c2.9,4.5,2.7,10.2-1.4,13.8
		c-4.1,3.6-2.7,6.2-0.7,9.9c1.6,2.9,2.7,6.3,3.1,9.6c0.6,4.2-2.1,7.1-6,7.8c-3.8,0.7-7.6-0.4-9.3-4.7c-0.8-2-1.4-4-2-5.8
		c-11.7,4.5-9.7,14.9-10.5,24c10.3,5,23.8,0,33.1,10.9c-8.1,5-15.8,3.6-23.8,3.2c-1,8.9-1.9,17.9-2.9,26.7
		c16.5,7.1,33.1,14.3,50.6,21.9c0.4-5.1,0.5-9.3,1.2-13.5c0.2-1.1,2.9-3,3.2-2.8c1.7,1.3,3.9,2.8,4.3,4.6c0.7,3.4,0.3,7,0.2,10.5
		c-0.1,2.6-0.1,4.9,3,6c1,0.3,1.9,1.4,2.5,2.4c0.8,1.4,2.1,3.7,1.5,4.4c-0.9,1.3-3.2,2.6-4.7,2.4c-3.9-0.7-4,1.4-4.3,4.2
		c-0.8,7-1.6,14-3.1,20.8c-0.4,2-3.3,3.4-5,5.1c-1.3-2.1-3.8-4.3-3.6-6.3c0.4-7.5,1.8-14.9,2.6-22.3c0.3-2.5,0-5,0-7.5
		c-16.4-7-32.8-14-49.7-21.2c-2.1,19.1-4,37.1-6,55.5c6.9,0,13.2-0.4,19.5,0.2c2.2,0.2,4.2,2.8,6.3,4.4c-2,1.5-3.9,4-6,4.2
		c-13.2,1-26.5,1.5-39.8,2.2c-0.5,0-1.1,0.2-1.5,0c-2.3-1.5-4.4-3.1-6.7-4.7c2.2-1.4,4.2-3.6,6.6-4.1c4.1-0.9,8.5-0.8,12.8-1.1
		c1.5-11.1,3-22,4.5-32.8c1-7.1,1.9-14.3,3-21.4C868.4,548.2,863.1,547.8,860.8,546.7z M708.5,370.6c-1.9-13.7-3.8-27.6-5.8-42.5
		c-7,4.8-13.2,9.6-19.9,13.5c-4.3,2.5-3.2,4.3-0.6,6.9c5.9,6.1,12,12,17.3,18.6C702,370.1,704,371.7,708.5,370.6z M772,542.2
		c-6.2,0.6-11.3,1.1-17,1.6c3.7,8.3,1.8,19.5,11.1,27.7C767,560.9,764.6,550.9,772,542.2z M868.4,540.5c0.8-8.4,1.5-15.9,2.3-23.8
		c-1.2-0.5-2.4-1.1-4.1-1.9c-1.2,8-2.3,15.5-3.4,23.1C864.6,538.6,866,539.3,868.4,540.5z"/>
</g>
</svg>
