<?xml version="1.0" encoding="utf-8"?>
<!-- Generator: Adobe Illustrator 23.0.3, SVG Export Plug-In . SVG Version: 6.00 Build 0)  -->
<svg version="1.1" id="Layer_3" xmlns="http://www.w3.org/2000/svg" xmlns:xlink="http://www.w3.org/1999/xlink" x="0px" y="0px"
	 viewBox="0 0 1120 690" style="enable-background:new 0 0 1120 690;" xml:space="preserve">
<style type="text/css">
	.st0{fill:#FFFFFF;}
</style>
<path class="st0" d="M733.4,559.4c-1.8-0.8-3.9-1.2-5.3-2.4c-2.6-2.1-4.9-4.7-7.2-7.2c-0.7-0.8-1.1-2-1.4-3.1
	c-1.3-5-2.6-10-3.6-15.1c-0.3-1.3,0.6-2.9,1-4.4c1.4,0.6,2.9,1.1,4.1,1.9c0.7,0.5,1,1.6,1.6,2.4c6.7,8.5,7.5,5.9,13,0.9
	c4.2-3.8,8.8-7.3,14.2-11.6c-8.4-1.7-16-3.5-23.7-4.6c-3.6-0.5-9.5-3.2-10.6-6.4c-9.3-26.4-18.6-52.8-28-79.2
	c-4-11.3-8.7-22.5-12.5-33.9c-3.5-10.6-6-21.5-9-32.2c0.4-0.3,0.9-0.6,1.3-0.9c1.4,0.9,2.9,1.6,4,2.7c13.9,13.7,27.4,27.6,38.8,43.5
	c12.7,17.8,26.6,34.9,40,52.2c2.7,3.5,6.1,6.5,8.8,10c1.5,2,3,4.6,2.9,6.9c-0.7,11.6-1.8,23.1-2.9,35.3c9.2-6.6,18.1-13.1,27.2-19.6
	c-1.1-2.7-2.5-5.3-3.3-8c-0.4-1.3,0.1-3.7,1-4.2c1.2-0.7,3.1,0,4.7,0.3c1,0.2,2,1.3,2.9,1.2c3.7-0.3,5.9,1.4,7,4.8
	c0.9,2.8,1.8,5.6,3.1,8.2c1.7,3.4,1,6-1.6,8c0.6,2.7,1,5.2,1.7,8.2c-7.3-1.4-8.2-7.7-11.1-11.6c-9.3,6.7-18.5,13.4-27.4,19.9
	c7.3,14.1,14.7,28.3,22.1,42.5c3.7-1.7,7.2-3.6,11-5.2c3.3-1.3,8.5,0.6,10.1,3.7c1.7,3.2-0.4,5.3-2.3,7.6c-3.3,4-7.7,5.6-12.2,7.3
	c-5.6,2.1-11,4.8-16.6,7.4c-1.8-3.2-4.2-6.3-5.3-9.9c-0.4-1.5,1.8-4,3.3-5.6c0.8-0.8,2.6-0.7,5.3-1.2c-7.9-14.2-15.4-27.6-23-41.3
	c-7.7,6.2-14.9,12.1-22.2,17.9c-2.3,1.9-3.5,3.7-1.7,6.7c1.2,2.1,2,4.4,2.9,6.7C734,558.6,733.7,559,733.4,559.4z"/>
</svg>
