<?xml version="1.0" encoding="utf-8"?>
<!-- Generator: Adobe Illustrator 23.0.3, SVG Export Plug-In . SVG Version: 6.00 Build 0)  -->
<svg version="1.1" id="Layer_3" xmlns="http://www.w3.org/2000/svg" xmlns:xlink="http://www.w3.org/1999/xlink" x="0px" y="0px"
	 viewBox="0 0 1120 690" style="enable-background:new 0 0 1120 690;" xml:space="preserve">
<style type="text/css">
	.st0{fill:#FFFFFF;}
</style>
<g>
	<path class="st0" d="M500.8,273.6c7.9,8.6,15.5,16.7,23,24.8c0.6-0.1,1.3-0.2,1.9-0.2c2.7-16.1,5.3-32.2,8.1-48.9
		c3.6,4,7,7.8,10.4,11.7c1,1.1,1.7,2.5,2.9,3.4c3.8,3.1,6.6,2.4,8.1-2.3c1.7-5.2,3.1-10.5,4.9-16.8c1.7,2.5,3.1,4.5,4.3,6.4
		c1.1,1.6,1.8,3.6,3.1,5c2,2,4.4,4.9,6.8,5.1c3.7,0.3,3.5-4,4.3-6.6c1.5-4.9,2.6-10,5.2-15.4c1.8,3.5,3.6,7,5.4,10.4
		c1.3,2.5,2.5,6,5.9,4.7c2.3-0.9,4.4-3.5,5.5-5.9c1.3-2.9,1.4-6.3,2.1-10c1.7,2.1,3.4,4.3,5.2,6.4c3.2,3.9,6.9,3.6,9.1-0.8
		c0.7-1.3,1-2.7,1.5-4.1c0.4-1.2,0.8-2.3,1.2-3.4c4.3,9.8,2.5,21.4,8,30.9c0.6-0.1,1.2-0.2,1.8-0.3c0.6-3.3,1.2-6.5,1.8-9.8
		c0.4-0.1,0.9-0.2,1.3-0.3c1.2,5.4,2.8,10.7,3.5,16.2c1.6,10.9,3.4,21.7,3.9,32.7c0.5,10.6-0.1,21.2-1.1,31.8
		c-1.1,11.5-3,23-4.7,34.5c-2.4,16.1-6.5,31.7-15.2,45.8c-0.5,0.8-1.3,1.5-2,2.2c-6-4.7-8.5-3.9-10.8,3.5c-1.1,3.6-2.5,7.2-2.8,10.8
		c-0.6,6.2-3.6,10.4-8.6,14c-11.9,8.6-24.2,16.6-38.5,21c-4,1.2-8.4,4.3-11.9,3.4c-3.2-0.8-5.9-5.4-7.9-8.9
		c-3.1-5.4-6.5-4.8-10.7-1.8c-3,2.2-6.7,3.8-9.1,6.6c-2.3,2.7-3.3,1.8-4-0.4c-1.7-5.8-3.4-11.6-4.4-17.5c-1.9-10.9-3.8-21.9-5-33
		c-1.4-13.9-2.5-27.9-3-41.9c-0.5-12.5,0-25-0.1-37.5c-0.2-14.9-0.8-29.9-0.9-44.8C499.4,287.6,500.3,281,500.8,273.6z M544.4,470.8
		c16.1-5.2,30.6-12.5,43.9-22.3c1.5-1.1,2.8-3.5,3-5.4c1.7-17.9-3.8-34.1-13-49c-3.2-5.2-7-10.7-11.8-14
		c-8.3-5.6-17.5-10.3-26.7-14.1c-7.9-3.3-16.3-5.7-25-5c-8.2,34.3-5.4,92.9,1.4,101.5c1.8-1.5,3.4-3.1,5.3-4.5
		c7.9-5.8,10.6-5.3,16.2,3C539.9,464.3,542.1,467.5,544.4,470.8z"/>
</g>
</svg>
