<?xml version="1.0" encoding="utf-8"?>
<!-- Generator: Adobe Illustrator 23.0.3, SVG Export Plug-In . SVG Version: 6.00 Build 0)  -->
<svg version="1.1" id="Layer_3" xmlns="http://www.w3.org/2000/svg" xmlns:xlink="http://www.w3.org/1999/xlink" x="0px" y="0px"
	 viewBox="0 0 1120 690" style="enable-background:new 0 0 1120 690;" xml:space="preserve">
<style type="text/css">
	.st0{fill:#FFFFFF;}
</style>
<path class="st0" d="M962.6,542.1c3.4,2,6.8,4,10.1,6c0,0.6,0,1.2,0,1.8c-1.9,0.4-3.8,1.2-5.7,1.2c-3.3-0.1-6.5-0.6-9.8-1
	c-0.6-0.1-1.4-0.2-1.9-0.6c-5.1-3.8-10.2-7.4-15-11.5c-1.7-1.5-2-3.8,1.2-5c1.5-0.5,2.7-1.7,4.7-3.1c2.7,1.2,6.1,2.6,10.1,4.4
	c2.1-7.7,4.3-16.1,6.7-25c-7,3.1-14.2,5.8-21,9.2c-4.8,2.4-8.7,1.2-12.6-1.3c-13.2-8.6-26.4-17.3-39.6-25.9c-4-2.6-8.3-4.9-12.3-7.7
	c-15.7-10.7-31.2-21.4-46.9-32.1c-4-2.7-8.2-5.1-12-7.8c-2.6-1.9-4.9-4.2-7.3-6.4c0.3-0.7,0.6-1.3,0.9-2c8.2,1.5,16.4,2.6,24.5,4.5
	c21.6,5.2,43.2,10.9,64.8,16.2c13.1,3.2,26.3,5.9,39.4,9.1c2,0.5,3.9,2.8,5.2,4.8c6.5,9.4,12.8,18.9,19.6,29.2
	c2.8-11,5.6-21.6,8.4-32.5c-2.3-1.4-4.9-2.5-7-4.3c-1.3-1.1-2.8-3.1-2.6-4.5c0.2-1.1,2.7-2,4.2-2.8c0.7-0.3,2,0.1,2.3-0.4
	c4-5.2,8.8-2.1,11.8,0.2c3.6,2.7,10.2,3.8,9,10.9c-0.1,0.7,2.3,1.6,3.3,2.6c0.8,0.9,1.1,2.2,1.6,3.3c-1,0.4-2.1,1.3-3,1.1
	c-3.6-0.7-7.2-1.7-11.1-2.7c-3.4,11.8-6.8,23.7-10.3,36c13.2,5.1,26.1,10.2,39.1,15.3c2.4,1,4.1,0.7,5.1-2c0.8-2.2,1.7-4.3,2.7-6.3
	c3.5-6.8,7.4-8.1,14.3-4.8c-4.4,11.8-8.8,23.7-13.4,36.1c-3.6-1.8-8.1-2.9-10.7-5.7c-4.1-4.3,2.7-7.2,2.9-11.2
	c-13.5-5.1-27-10.2-41.3-15.7C968.3,521.9,965.4,532,962.6,542.1z"/>
</svg>
