<?xml version="1.0" encoding="utf-8"?>
<!-- Generator: Adobe Illustrator 23.0.3, SVG Export Plug-In . SVG Version: 6.00 Build 0)  -->
<svg version="1.1" id="Layer_3" xmlns="http://www.w3.org/2000/svg" xmlns:xlink="http://www.w3.org/1999/xlink" x="0px" y="0px"
	 viewBox="0 0 1120 690" style="enable-background:new 0 0 1120 690;" xml:space="preserve">
<style type="text/css">
	.st0{fill:#FFFFFF;}
</style>
<path class="st0" d="M512.3,1c6,9.4,12.1,18.7,18,28.2c17.5,28.2,36,56,52.2,85c14.3,25.5,27,52.1,38.4,79
	c8.3,19.7,14.2,40.5,19.8,61.2c3,11,3.4,22.8,4.5,34.2c0.8,8.6,0.6,17.2,1.2,25.8c0.1,1.5,1.2,3.8,2.5,4.4
	c27.1,13.1,41.5,38.2,56.4,62c19,30.5,32.7,63.9,39,99.2c3.9,21.9,2.9,44.7,3.7,67.2c0.1,1.5-2.4,4.3-3.8,4.4
	c-1.5,0.1-3.4-2.1-4.8-3.6c-13-14-24.7-29.3-39.1-41.6c-14.4-12.3-30.7-23-47.5-31.9c-14.2-7.5-30.2-11.8-45.8-16.1
	c-3.4-0.9-9,3.1-12.4,6.1c-16,14.4-35.5,21.6-55.1,28.9c-25.9,9.7-52.8,14.2-80.1,14.1c-12.1,0-24.3-4.1-38.7-6.7
	c-4.3,10.7-10.7,22.6-14,35.3c-4.2,16.5,2.3,31.9,10,46.2c6.3,11.6,13.5,22.7,21.2,33.5c7.6,10.7,16.3,20.6,24.7,31
	c-12.2,0.7-24.7,2.4-37.1,1.7c-12.1-0.7-24.4-2.6-35.9-6.3c-27.2-8.8-50.6-24.8-73.7-41.5c-19.1-16-36.3-34.3-53.6-59.3
	c-11.4-16.2-19-35.8-23-50.2c-8.7-32.5-4.1-71.1,7.4-102.2c5.2-11.6,10.1-20.2,16-31.4c4.1-7.7,10-14.5,15.2-21.6
	c3.3-4.5,5-7.8-1.1-12.4c-19.6-14.8-31.6-46.5-25.5-64.8c0.8-2.3,1.3-4.7,2.2-7c2.7-6.5,5.5-10,13.2-4.4
	c10.3,7.6,21.7,13.7,32.6,20.5c1.7-20,16.9-29.5,31.1-39.2c15-10.2,31.6-14,50.3-8.2c-2-5.4-3.4-9.8-5.1-14.1
	c-2.7-6.8,1.6-8.7,6.4-7.2c11.5,3.6,22.7,8.6,34.1,12.5c2,0.7,6.1-0.2,7.1-1.7c10.4-15.8,21.6-31.3,30.3-48
	c12-23.2,23.6-46.9,32.6-71.4c9.9-26.9,16.6-54.9,24.5-82.4c0.6-2.2,1.2-4.8,1.1-7.2C512.3,1,511.7,1,512.3,1z"/>
<path class="st0" d="M254.8,359.9c-23.2,37.1-30.6,82.4-26.2,115.8c2,23.5,12.7,49.1,25.3,68c16.8,25.1,38.2,46.7,60,66.7
	c14.7,13.5,21.1,16.8,37.8,28.4c1.4,1,15,8.3,17.7,10c-46,18-95.5,36.2-144.4,36.7c18.6-12.8,37.1-25.6,56.1-38.7
	c-8-6.2-15.9-11.3-22.5-17.8c-9.9-9.9-19.8-20-28-31.3c-18.1-24.8-35.7-50.1-52.5-75.8c-8.3-12.7-11.2-18.7-17.6-32.6
	c-1.8-4-4.8-14.5-1-29.5c7-19.4,12.8-27,30.7-47.8c14.4-16.5,33.6-28.9,50.9-42.9C246.6,364.7,247.7,364.6,254.8,359.9z"/>
</svg>
