<?xml version="1.0" encoding="utf-8"?>
<!-- Generator: Adobe Illustrator 23.0.3, SVG Export Plug-In . SVG Version: 6.00 Build 0)  -->
<svg version="1.1" id="Layer_3" xmlns="http://www.w3.org/2000/svg" xmlns:xlink="http://www.w3.org/1999/xlink" x="0px" y="0px"
	 viewBox="0 0 1120 690" style="enable-background:new 0 0 1120 690;" xml:space="preserve">
<style type="text/css">
	.st0{fill:#FFFFFF;}
</style>
<path class="st0" d="M767.4,346.8c-8.4,3.2-16.2,6.4-24.1,9c-2,0.7-5.2,0.2-7-1c-7.3-4.8-14.1-10.3-21.3-15.2
	c-8.6-5.9-17.3-11.7-26-17.4c-9-6-18.1-11.9-27.2-17.8c-7.1-4.6-14.2-9.1-21.2-13.7c-6.1-3.9-12.1-7.7-18.1-11.7
	c-1.8-1.2-3.3-2.7-4.9-4.1c0.1-0.5,0.1-1.1,0.2-1.6c2,0,4.2-0.4,6.1,0.1c20.8,4.6,41.5,9.4,62.2,14.1c20.4,4.6,40.8,9.1,61.1,14
	c3.5,0.8,5.9,3.5,8.6,6.2c7.5,7.3,8.3,18.4,16.2,25.3c2.8-9.1,5.7-18.3,8.3-27.7c1.2-4-2.7-4.8-5-6.2c-4.5-2.7-4.7-2.9-2.2-7.7
	c8.3,2.7,16.6,5.5,24.9,8.2c-1.8,3.9-4.2,7.1-9,7.9c-0.6,0.1-1.2,1.8-1.5,2.8c-3,9.9-6,19.9-9.1,30.5c7.4,2.8,14.8,5.6,22.2,8.4
	c6.1,2.3,12.2,4.5,18.3,6.8c3.9,1.5,8.5-0.1,10.7-4.1c1.5-2.6,3.1-5.3,4.8-8.1c2.5,1.4,4.6,2.6,7.2,4c-4.1,10.6-8.3,21.3-12.5,32.2
	c-3.9-2.5-7.9-4.8-11.5-7.5c-3.9-3,1.6-4.5,1.3-8c-13.8-5.1-28-10.4-43-16c-2.8,9.4-5.4,18.3-8.1,27.5c1.5,0.9,3.1,2,5.1,3.2
	c-0.9,1.9-1.8,3.8-2.5,5.5c-8.1-3.6-16.1-7.2-24.1-10.8c2.8-7.7,1.4-6,10.9-3.7c2.6,0.6,3.9,1.4,4.7-2.3
	C763,360.9,765.2,354.3,767.4,346.8z"/>
</svg>
