<?xml version="1.0" encoding="utf-8"?>
<!-- Generator: Adobe Illustrator 23.0.3, SVG Export Plug-In . SVG Version: 6.00 Build 0)  -->
<svg version="1.1" id="Layer_1" xmlns="http://www.w3.org/2000/svg" xmlns:xlink="http://www.w3.org/1999/xlink" x="0px" y="0px"
	 viewBox="0 0 1120 690" style="enable-background:new 0 0 1120 690;" xml:space="preserve">
<style type="text/css">
	.st0{fill:#FFFFFF;}
</style>
<path class="st0" d="M4,629c3.8-1.8,7.3-3.7,10.9-5.2c8.7-3.6,17.5-7,26.2-10.4c9-3.6,18.2-7,27.1-10.7c4.5-1.9,8.8-4.4,13.2-6.6
	c4.6-2.2,9.4-4.1,13.9-6.4c4.8-2.5,10.3-4.1,13.7-9.6c1.1-7.4,0.5-15.3-0.8-23.3c-0.1-0.5-0.1-1-0.1-1.5c-0.3-7.1-0.3-14.3-1.1-21.3
	c-1.1-9.8-2-19.6-4.5-29.3c-1.9-7.5-2.9-15.2-4.4-22.8c-0.9-4.8-1.9-9.7-3-14.5c-2-9-3.9-18-6.1-27c-0.9-3.8-2.4-7.5-4-11.2
	c-1.1-2.8-1.6-5.4,0-8.1c0.5-0.8,1.1-1.7,1.9-2.2c11.9-8.3,23.7-16.8,35.8-24.8c8.1-5.4,16.5-10.4,24.8-15.4
	c6.6-4,13.2-8.1,20.1-11.6c8.9-4.5,18-8.5,27-12.6c5.7-2.6,11.4-5.2,17.2-7.6c8.1-3.3,16.2-6.7,24.4-9.7c8.2-3,16.5-5.8,24.9-8.3
	c10.7-3.2,21.6-6.1,32.4-9.1c11.3-3.1,22.6-6,33.8-9.3c2.7-0.8,5.1-0.9,7.7-0.4c2,2.3,1.5,4.9,1,7.2c-1.1,4.8-2.6,9.6-4.1,14.3
	c-1.2,3.8-4.2,5.4-8.4,5.7c-4.5,8.1-9.4,16.1-13.5,24.6c-5.6,11.2-10.4,22.8-15.8,34.1c-2.5,5.2-5.2,10.2-6.3,16
	c-0.6,3.1-1.2,6.2-1.4,9.3c-0.5,6.6-1.1,13.2-1,19.8c0.1,5.1,1.2,10.1,1.8,15.2c0.5,4.1,0.5,8.3,1.2,12.3c1.3,7.8,3.1,15.5,6.7,22.7
	c1.3,2.7,2.8,5.2,4.3,7.8c6.3,10.9,12.3,21.9,16.2,33.9c1,3.2,3.4,6,5.4,8.9c4.8,6.9,9.6,13.9,14.7,20.5c3.4,4.4,7.6,8.3,11.4,12.4
	c2.8,3,5.6,6.1,8.6,8.9c2.7,2.4,5.8,4.4,8.6,6.7c6,5,11.9,10,19.1,13.2c2.2,1,4.3,2.5,6.6,3c2.7,0.7,4,2.7,5.8,4.5
	c1-0.3,2.2-1.1,3.3-1c1,0.1,2,1.1,2.7,2c2.1,2.7,3.4,5.7,2.2,9.7c-7,8.2-14.9,16.1-25.4,20.9c-4.5,2-8.8,4.4-13.1,6.6
	c-9.4-4.7-18.7-8.9-26.7-15.5c-5.7-4.7-12-8.8-18-13.1c-6.6-4.8-12.2-10.5-17.7-16.5c-6-6.5-10.8-13.8-16.8-20.2
	c-2.4-2.5-4.4-5.3-6.9-8.4c0.5,8.4-2.6,15.2-6,22.1c-3.1,6.2-6.9,11.9-11.8,16.4c-5.5,5.1-10.7,10.7-17.2,15
	c-4.9,3.3-9.7,6.8-15,9.4c-8.6,4.2-17.2,8.4-26.5,10.8c-9.9,2.5-19.7,5.3-29.7,7.5c-4.8,1.1-9.5,2.7-14.6,2.7c-3,0-5.7,2.1-8.9,2.2
	c-4.8,0.2-9.5,1.5-14.2,1.5c-8.9,0-17.9-0.4-26.8-1c-7.6-0.5-15.2-1.1-22.7-2c-8.2-1-16.2-2.9-24.4-3.8c-9-0.9-17.5-3.2-25.9-6.2
	c-11.4-4-21.7-9.9-30-18.8C5.4,630.8,4.9,630.1,4,629z"/>
<path class="st0" d="M534.5,451.9c2,8.3,3.5,15.8,5.6,23c4.4,14.9,9.1,29.7,13.7,44.5c3.7,11.8,6.4,23.8,8.9,35.9
	c1,4.6,1.8,9.2,2.5,13.9c1.4,8.2-1.8,11-8.3,12.8c-6.5,1.9-13.1,3.1-19.7,4.7c-7.3,1.8-14.7,3.7-22,5.6c-11.2,2.9-22.3,5.9-33.5,8.5
	c-5.1,1.2-10.4,1.5-15.6,2.3c-5,0.8-10,1.8-15.1,2.6c-1.8,0.3-3.6,0.3-5.6,0.4c-0.9-1.6-1.7-3-2.4-4.2c0.8-4,3.1-5.9,6.5-7.2
	c2.3-0.9,4.3-2.4,6.3-3.8c5.8-4,11.6-8,17.4-12.2c3.9-2.8,7.5-5.9,11.4-8.8c1.7-1.2,3.6-2.1,5.8-3.4c-9.9-21.5-20.4-42.2-35.7-60.3
	c-2.1,6.6-5.7,12-9.2,17.4c-5.1,7.9-11.5,14.5-18.2,21c-1.7,1.6-3.4,3.3-5.4,4.3c-5.4,2.7-9.9,7.1-16.1,8.4c-8,1.8-16.1,3.4-24,5.8
	c-5.9,1.7-11.7,2.2-17.7,1.9c-4.8-0.3-9.5-0.9-14.8-1.4c0.4-1.6,0.6-3.2,1.2-4.6c5.1-11.3,10-22.7,15.5-33.8
	c6.5-13.2,14.6-25.5,23.9-37c7-8.6,13.1-17.8,19.7-26.7c3.8-5,7.8-9.9,11.8-14.7c2.9-3.4,5.8-6.8,9-9.9c1.5-1.4,3.5-2.7,5.4-3.2
	c3.8-1,7.7-1.7,11.6-2c12.8-0.9,25.3,1.9,37.8,4.4c6.6,1.3,13.3,2.3,19.9,3.6c9.4,1.9,18.9,3.5,26.3,10.5
	C532.5,451.2,533.9,451.6,534.5,451.9z"/>
</svg>
