<?xml version="1.0" standalone="no"?>
<!DOCTYPE svg PUBLIC "-//W3C//DTD SVG 20010904//EN"
 "http://www.w3.org/TR/2001/REC-SVG-20010904/DTD/svg10.dtd">
<svg version="1.0" xmlns="http://www.w3.org/2000/svg"
 width="512.000000pt" height="512.000000pt" viewBox="0 0 512.000000 512.000000"
 preserveAspectRatio="xMidYMid meet">
<metadata>
Created by potrace 1.14, written by Peter Selinger 2001-2017
</metadata>
<g transform="translate(0.000000,512.000000) scale(0.100000,-0.100000)"
fill="#000000" stroke="none">
<path d="M0 5110 c0 -7 43 -114 74 -183 33 -74 46 -105 81 -187 20 -46 42 -98
50 -114 7 -17 41 -96 75 -176 34 -80 70 -163 80 -185 9 -22 30 -69 45 -105 15
-36 33 -78 41 -95 7 -16 105 -246 219 -510 113 -264 212 -493 220 -510 7 -16
77 -177 154 -357 78 -181 204 -475 282 -655 78 -181 204 -474 281 -653 77
-179 204 -473 282 -655 79 -181 180 -419 227 -527 l84 -198 1463 0 1462 0 -2
477 -3 477 -1187 0 -1187 0 -91 216 c-51 118 -98 229 -105 245 -49 114 -104
246 -175 415 -45 107 -87 209 -95 225 -7 17 -268 624 -579 1350 -311 726 -572
1334 -580 1350 -8 17 -47 105 -86 196 l-71 166 -479 0 c-264 0 -480 -3 -480
-7z"/>
<path d="M1165 5101 c3 -9 15 -36 27 -61 11 -25 88 -205 172 -400 l152 -355
720 -1 c395 -1 753 -4 794 -8 396 -36 706 -229 873 -546 31 -59 82 -199 92
-252 38 -204 45 -446 19 -613 -76 -479 -370 -786 -844 -882 -92 -18 -208 -25
-432 -26 -120 0 -218 -2 -218 -4 0 -4 38 -96 70 -168 9 -22 23 -53 30 -70 52
-124 240 -557 248 -571 10 -18 51 -19 1122 -20 l1111 -1 -4 1171 c-2 644 -7
1191 -11 1216 -82 504 -250 838 -557 1110 -189 166 -446 306 -713 386 -81 25
-282 68 -366 79 -25 3 -63 8 -85 11 -22 3 -62 8 -90 11 -27 2 -515 6 -1083 8
-945 2 -1033 1 -1027 -14z"/>
<path d="M1600 4095 c0 -5 187 -442 295 -690 7 -16 64 -149 126 -295 62 -146
181 -422 264 -615 l151 -350 299 1 c274 0 307 2 382 22 185 48 314 117 439
235 152 143 248 331 282 552 9 58 8 281 -1 345 -44 308 -219 560 -482 692 -58
30 -182 73 -240 84 -22 4 -47 10 -55 12 -21 8 -1460 14 -1460 7z"/>
</g>
</svg>
