<?xml version="1.0" encoding="utf-8"?>
<!-- Generator: Adobe Illustrator 23.0.3, SVG Export Plug-In . SVG Version: 6.00 Build 0)  -->
<svg version="1.1" id="Layer_1" xmlns="http://www.w3.org/2000/svg" xmlns:xlink="http://www.w3.org/1999/xlink" x="0px" y="0px"
	 viewBox="0 0 1546 886" style="enable-background:new 0 0 1546 886;" xml:space="preserve">
<style type="text/css">
	.st0{fill:#FFFFFF;}
</style>
<path class="st0" d="M273.3,122.1c-15.7,5.5-31.5,10.8-47.2,16.4c-4.4,1.6-8.6,4-12.9,5.8c-4.6,1.9-7.9,0.8-9.4-3.1
	c-1.6-4,1-6.1,4.1-7.6c21.1-10.5,43.2-18.2,66.4-22.6c4.3-0.8,8.8-0.9,13.3-1c5.2-0.1,7.7,3.8,5.2,8.5c-2.5,4.7-6,8.9-9.1,13.3
	c-10.5,15-21.1,29.9-31.5,44.9c-5.1,7.4-10.1,15-15,22.3c14.6-2.1,28.8-4.2,43-6.1c3.9-0.5,6.7,0.9,6.9,5.5c0.2,4.6-2.8,5.8-6.5,6.4
	c-13.2,2.2-26.4,4.4-39.6,6.5c-3.7,0.6-7.5,1.4-11.2,1.4c-6,0-9.8-5.7-7.1-11c3.8-7.7,7.9-15.3,12.7-22.5
	c9.3-14,19.1-27.7,28.7-41.5c3.3-4.8,6.7-9.5,10.1-14.2C273.8,123.2,273.6,122.7,273.3,122.1z"/>
<path class="st0" d="M355.1,187.3c-8.2,4.3-15.7,8.1-23,12.2c-5,2.8-8.1,2.8-10.1-0.5c-2.2-3.6-1.1-7.4,3.5-9.8
	c10.7-5.6,21.6-10.9,32.5-16.1c3.4-1.6,7-2.5,10.5-4c3.7-1.6,7.1-1.1,9.5,2.1c2.5,3.5,0.3,6.2-1.8,9.2
	c-10.9,15.5-21.5,31.1-32.2,46.7c0.3,0.5,0.6,0.9,0.9,1.4c7.6-2.9,15.2-5.8,22.8-8.8c3.7-1.5,8.6-0.5,10.2,2.4
	c1.7,3.1,0.1,8.1-3.8,9.3c-12.4,3.8-25,7.2-37.6,10.4c-3.2,0.8-7.5,0.7-8.5-3c-0.8-3.1-0.4-7.4,1.3-10.1c8.2-13.2,16.9-26,25.5-38.9
	C354.8,189.5,354.7,189,355.1,187.3z"/>
<path class="st0" d="M414.7,244.2c3.5-1.2,6.1-2.3,8.9-3c3.6-1,6.6,0.1,8.3,3.6c1.3,2.9-1,6.9-4.6,8.1c-6.3,2.1-12.5,4.5-19,6.1
	c-6.8,1.6-11.1-3.2-8.8-9.9c1.8-5.3,4.2-10.4,6.7-16.4c-1.9,0.6-3.1,0.9-4.2,1.4c-4.7,1.9-7.2,1.2-9-3.5c-1.6-4.1,0.9-6.3,4.4-7.6
	c6.2-2.3,12.5-4.7,18.9-6.4c1.7-0.5,4.7,0.8,5.8,2.2c1.2,1.6,1.8,4.7,1.1,6.5C420.8,231.5,417.8,237.4,414.7,244.2z"/>
</svg>
