<?xml version="1.0" encoding="utf-8"?>
<!-- Generator: Adobe Illustrator 23.0.3, SVG Export Plug-In . SVG Version: 6.00 Build 0)  -->
<svg version="1.1" id="Layer_1" xmlns="http://www.w3.org/2000/svg" xmlns:xlink="http://www.w3.org/1999/xlink" x="0px" y="0px"
	 viewBox="0 0 1000 1000" style="enable-background:new 0 0 1000 1000;" xml:space="preserve">
<polygon points="131.5,448.1 316.6,879.3 420,879.3 235,448.1 "/>
<polygon points="550.1,879.3 734.5,448.1 616.4,448.1 498.3,712.1 379.6,448.1 261.5,448.1 446.6,879.3 "/>
<polygon points="405.9,448.1 498,662.5 590,448.1 "/>
<polygon points="295.8,896.5 288.4,879.3 288.5,879.3 103.5,448.1 0,448.1 237.5,1000 377,1000 998.9,1000 998.9,896.5 "/>
<path d="M345.3,424.4c6.2-1,12.1-2.1,17.9-3.5c22.1-4.8,41.8-11.9,58.7-21c16.9-8.8,31.6-19.6,43.9-32.1
	c8.7-8.8,16.2-18.4,22.7-28.7c2.6-4.1,5-8.2,7.2-12.5c1.2-2.3,2.3-4.7,3.4-7.1c4.5-9.7,8.2-19.8,11.1-30.3c1-3.5,1.8-7.1,2.6-10.7
	c3.5-16.8,5.3-34.4,5.3-52.3v-23c0-27.9-4.4-54-13.2-78.7c-0.9-2.6-1.9-5.2-3-7.8c-1.1-2.6-2.2-5.1-3.3-7.6c-1.6-3.4-3.3-6.7-5-10
	c-1.8-3.3-3.7-6.5-5.6-9.6c-6.8-10.7-14.8-20.7-24.1-29.8c-18.8-18.5-42.5-33-71.5-43.8c-14.4-5.2-30.2-9.2-47.3-11.8
	C327.7,1.4,308.8,0,288.5,0H0v89.5h34.2H78H146h133.7c22.3,0,41.3,3.4,57.1,10.5c15.6,7.1,28.3,16.2,38.3,27.3
	c9.7,11.1,16.9,23.9,21.4,37.8c4.4,13.9,6.7,28.1,6.7,42.4v12.2c0,17.6-2.8,33.8-8.1,48.3c-5.6,14.8-13.7,27.3-24.1,37.8
	c-10.4,10.5-23.4,18.8-38.5,24.4c-15.3,6-32.7,8.8-52.2,8.8H146H66.6H0v89.5h288.5C308.9,428.6,327.9,427.2,345.3,424.4z"/>
<path d="M383.9,214.3c0-58.1-47.1-105.2-105.2-105.2H0v210.3h278.8C336.9,319.5,383.9,272.4,383.9,214.3z"/>
<path d="M510,89.5h79.4h67.9h4.1h14.4h31.6h52.1c22.3,0,41.3,3.4,57.1,10.5c15.6,7.1,28.3,16.2,38.3,27.3
	c9.7,11.1,16.9,23.9,21.4,37.8c4.4,13.9,6.7,28.1,6.7,42.4v12.2c0,17.6-2.8,33.8-8.1,48.3c-5.6,14.8-13.7,27.3-24.1,37.8
	c-10.4,10.5-23.4,18.8-38.5,24.4c-15.3,6-32.7,8.8-52.2,8.8h-52.6h-31.6h-14.4h-4.1H578h-67.5c-8.6,15.6-19.1,29.7-31.2,42
	c-13.8,14-30.1,26-48.5,35.6c-8.3,4.5-17.3,8.4-26.7,12h257.3h14.4h31.6h61c27.6,0,52.7-2.6,74.7-7.7c22.1-4.8,41.8-11.9,58.7-21
	c16.9-8.8,31.6-19.6,43.9-32.1c12.1-12.2,22.1-26.1,29.9-41.2c7.7-15.1,13.5-31,17.2-48c3.5-16.8,5.3-34.4,5.3-52.3v-23
	c0-27.9-4.4-54-13.2-78.7c-8.8-24.7-22.5-46.3-41.1-64.8c-18.8-18.5-42.5-33-71.5-43.8C843.3,5.4,808.7,0,768.3,0h-61h-31.6h-14.4
	H403.7c29.6,11.6,53.8,26.7,73.7,46.3C490.3,59.2,501.3,73.7,510,89.5z"/>
<path d="M531.5,282.4L531.5,282.4l0,0.2c-2.7,12.6-6.6,24.9-11.6,36.9h141.6h14.4h31.6h51.2c58.1,0,105.2-47.1,105.2-105.2
	s-47.1-105.2-105.2-105.2h-51.2h-31.6h-14.4h-142c1.2,3,2.4,6,3.5,9c9.5,26.7,14.3,55.3,14.3,85.1v23
	C537.2,245.2,535.3,264.1,531.5,282.4z"/>
<path d="M998.8,450.1l0-1.4l0-102.2c0,0,0,0,0,0l0-10.1c-2.2,4.5-4.6,9-7.1,13.4l-0.1,0.1l-0.1,0.1c-9.2,15.2-20.7,28.9-34.1,40.6
	c-13.9,12.3-30.4,22.7-48.8,31c-18.5,8.6-39.8,15.2-63.3,19.7c-23.3,4.7-49.8,7-78.8,7h-6.7l0,0L571.9,879.3h426.9v-91.9H730.5
	l12.2-28.2h256.1v-91.9H782.1l11.9-28h204.8V506.8h-0.1L998.8,450.1L998.8,450.1z"/>
<polygon points="0.5,448.1 185.6,879.3 289,879.3 104,448.1 "/>
</svg>
