<?xml version="1.0" encoding="utf-8"?>
<!-- Generator: Adobe Illustrator 23.0.3, SVG Export Plug-In . SVG Version: 6.00 Build 0)  -->
<svg version="1.1" id="Layer_1" xmlns="http://www.w3.org/2000/svg" xmlns:xlink="http://www.w3.org/1999/xlink" x="0px" y="0px"
	 viewBox="0 0 8000 803.7" style="enable-background:new 0 0 8000 803.7;" xml:space="preserve">
<g>
	<polygon points="7311.1,356.2 7458.3,698.9 7540.5,698.9 7393.4,356.2 	"/>
	<polygon points="7414.5,356.2 7561.6,698.9 7643.9,698.9 7790.4,356.2 7696.6,356.2 7602.7,566 7508.3,356.2 	"/>
	<polygon points="7529.3,356.2 7602.5,526.6 7675.6,356.2 	"/>
	<path d="M7435.9,698.9L7435.9,698.9l-153.6-358.2l-30.5-71.2l-6.7-15.6h15.9h61h106.2c46.2,0,83.6-37.4,83.6-83.6
		s-37.4-83.6-83.6-83.6H7322h-107.4h-7.9h-17.4h-15.9h-114.6H0v167.2v15.6v71.2v375.7v78.4v8.9h7998.8v-8.9l0,0v-78.4h-555.3
		L7435.9,698.9z"/>
	<path d="M7166.6,71.2h40h7.9h19.3h34.8h54h106.3c17.7,0,32.8,2.7,45.4,8.4c12.4,5.6,22.5,12.9,30.4,21.7c7.7,8.8,13.5,19,17,30
		c3.5,11.1,5.4,22.4,5.4,33.7v9.7c0,14-2.2,26.9-6.5,38.4c-4.4,11.8-10.9,21.7-19.2,30.1c-8.3,8.4-18.6,14.9-30.6,19.4
		c-12.2,4.7-26,7-41.5,7h-106.6h-48.8l30.6,71.2H7436c16.2,0,31.3-1.1,45.2-3.3c4.9-0.8,9.6-1.7,14.2-2.8
		c17.5-3.8,33.2-9.5,46.7-16.7c13.5-7,25.1-15.6,34.9-25.5c6.9-7,12.9-14.6,18.1-22.8c2-3.2,4-6.5,5.7-9.9c0.9-1.9,1.8-3.7,2.7-5.6
		c3.6-7.7,6.5-15.7,8.8-24.1c0.8-2.8,1.5-5.6,2.1-8.5c2.8-13.3,4.2-27.3,4.2-41.6v-18.3c0-22.1-3.5-42.9-10.5-62.6
		c-0.7-2.1-1.5-4.2-2.4-6.2c-0.8-2-1.7-4-2.7-6c-1.3-2.7-2.6-5.4-4-7.9c-1.4-2.6-2.9-5.1-4.5-7.6c-5.4-8.5-11.8-16.4-19.1-23.7
		c-14.9-14.7-33.8-26.2-56.8-34.8c-11.4-4.1-24-7.3-37.6-9.4c-13.9-2.2-28.9-3.3-45.1-3.3h-229.3H7136l0,0h-23.2h-127.4l0,0h-80.6H0
		v20.2V35v36.3h7144.9h21.7V71.2z"/>
	<path d="M7989.5,99c-7-19.7-17.9-36.8-32.7-51.5c-14.9-14.7-33.8-26.2-56.8-34.8C7876.9,4.3,7849.4,0,7817.3,0h-48.5h-25.1h-11.4
		h-204.9c23.5,9.2,42.7,21.2,58.5,36.8c10.3,10.3,19,21.8,26,34.4h63.1h54h3.3h11.4h25.1h41.4c17.7,0,32.8,2.7,45.4,8.4
		c12.4,5.7,22.5,12.9,30.4,21.7c7.7,8.8,13.5,19,17,30c3.5,11.1,5.4,22.4,5.4,33.7v9.7c0,14-2.2,26.9-6.5,38.4
		c-4.4,11.8-10.9,21.7-19.2,30.1c-8.3,8.4-18.6,14.9-30.6,19.4c-12.2,4.7-26,7-41.5,7h-41.8h-25.1h-11.4h-3.3h-63.1h-53.7
		c-6.8,12.4-15.1,23.6-24.8,33.4c-11,11.2-23.9,20.7-38.6,28.3c-6.6,3.5-13.7,6.7-21.2,9.5h204.5h11.4h25.1h48.5
		c22,0,41.9-2,59.4-6.1c17.5-3.8,33.2-9.5,46.7-16.7c13.5-7,25.1-15.6,34.9-25.5c9.6-9.7,17.5-20.8,23.8-32.8
		c6.1-12,10.7-24.6,13.7-38.2c2.8-13.3,4.2-27.3,4.2-41.6v-18.3C8000,139.4,7996.5,118.6,7989.5,99z"/>
	<path d="M7629.1,224.5L7629.1,224.5v0.1c-2.2,10-5.3,19.8-9.2,29.3h112.5h11.4h25.1h40.7c46.2,0,83.6-37.4,83.6-83.6
		s-37.4-83.6-83.6-83.6h-40.7h-25.1h-11.4h-112.9c1,2.4,1.9,4.7,2.8,7.1c7.6,21.2,11.4,43.9,11.4,67.6v18.3
		C7633.7,194.9,7632.1,209.9,7629.1,224.5z"/>
	<path d="M7794.7,613.6l2.3-5.5L7794.7,613.6z"/>
	<path d="M7992.3,277.7c-7,11.5-7.9,14.4-25.6,32.6c-12.4,11.3-23.9,19.8-38.3,25.8c-14.4,6.2-31,11-49.3,14.3
		c-18.1,3.4-38.8,5.1-61.5,5.1h-5.2L7666,698.9h332.8v-73.3h-209.2l5.1-12l2.3-5.5l0,0h201.8v-73.3h-171.1l6.8-16.2l-4.7,11.2
		l4.7-11.3l0.5-1.3h163.7v-9.7V444v-42.1h-0.1l0.2-140C7998.8,261.9,7997.2,269.1,7992.3,277.7"/>
</g>
</svg>
