<?xml version="1.0" encoding="utf-8"?>
<!-- Generator: Adobe Illustrator 23.0.3, SVG Export Plug-In . SVG Version: 6.00 Build 0)  -->
<svg version="1.1" xmlns="http://www.w3.org/2000/svg" xmlns:xlink="http://www.w3.org/1999/xlink" x="0px" y="0px"
	 viewBox="0 0 500 500" style="enable-background:new 0 0 500 500;" xml:space="preserve">
<style type="text/css">
	.st0{fill:none;}
</style>
<g id="REF">
	<g>
		<path class="st0" d="M250,93.7c-86.3,0-156.3,70-156.3,156.3s70,156.3,156.3,156.3s156.3-70,156.3-156.3S336.3,93.7,250,93.7z
			 M250,312.4c-34.5,0-62.4-28-62.4-62.4c0-34.5,28-62.4,62.4-62.4s62.4,28,62.4,62.4C312.4,284.5,284.5,312.4,250,312.4z"/>
		<path d="M450.3,218.8c-13.4-87-82.1-155.9-169.1-169.5V0h-62.4v49.1C131.3,62.4,62.1,131.4,48.7,218.8H0v62.4h48.7
			c13.5,87.4,82.6,156.4,170.1,169.7V500h62.4v-49.3c87-13.6,155.6-82.5,169.1-169.5H500v-62.4H450.3z M250,406.3
			c-86.3,0-156.3-70-156.3-156.3S163.7,93.7,250,93.7s156.3,70,156.3,156.3S336.3,406.3,250,406.3z"/>
		<circle cx="250" cy="250" r="62.4"/>
	</g>
</g>
<g id="Layer_3">
</g>
<g id="BG">
</g>
<g id="Layer_4">
</g>
</svg>
