<?xml version="1.0" encoding="utf-8"?>
<!-- Generator: Adobe Illustrator 23.0.3, SVG Export Plug-In . SVG Version: 6.00 Build 0)  -->
<svg version="1.1" xmlns="http://www.w3.org/2000/svg" xmlns:xlink="http://www.w3.org/1999/xlink" x="0px" y="0px"
	 viewBox="0 0 500 500" style="enable-background:new 0 0 500 500;" xml:space="preserve">
<style type="text/css">
	.st0{fill:none;}
</style>
<g id="REF">
	<path class="st0" d="M250,93.7c-86.3,0-156.3,70-156.3,156.3s70,156.3,156.3,156.3s156.3-70,156.3-156.3S336.3,93.7,250,93.7z
		 M250,281.2c-17.2,0-31.2-14-31.2-31.2c0-17.2,14-31.2,31.2-31.2s31.2,14,31.2,31.2C281.2,267.2,267.2,281.2,250,281.2z"/>
	<path d="M500,218.8h-64.7C422.1,140,360,77.9,281.2,64.7V0h-62.4v64.7C140,77.9,77.9,140,64.7,218.8H0v62.4h64.7
		C77.9,360,140,422.1,218.8,435.3V500h62.4v-64.7C360,422.1,422.1,360,435.3,281.2H500V218.8z M250,406.3
		c-86.3,0-156.3-70-156.3-156.3S163.7,93.7,250,93.7s156.3,70,156.3,156.3S336.3,406.3,250,406.3z"/>
	<circle cx="250" cy="250" r="62.4"/>
</g>
<g id="Layer_3">
</g>
<g id="BG">
</g>
<g id="Layer_4">
</g>
</svg>
