<svg  data-v-2986b0bb="" width="100%" height="100%" viewBox="0 0 95 95" version="1.1" xmlns="http://www.w3.org/2000/svg" xmlns:xlink="http://www.w3.org/1999/xlink" xml:space="preserve" xmlns:serif="http://www.serif.com/" aria-hidden="true" fill="#c33409" class="v-icon notranslate icon v-icon--is-component theme--dark" style="fill-rule: evenodd; clip-rule: evenodd; stroke-linejoin: round; stroke-miterlimit: 2; font-size: 16px; height: 16px;"><g transform="matrix(1,0,0,1,-5,-5)"><path d="M52,10.051L52,5L48,5L48,10.051C27.498,11.06 11.06,27.498 10.051,48L5,48L5,52L10.051,52C11.06,72.502 27.498,88.94 48,89.949L48,95L52,95L52,89.949C72.502,88.94 88.94,72.502 89.949,52L95,52L95,48L89.949,48C88.94,27.498 72.502,11.06 52,10.051ZM81.931,48L74.913,48C73.946,35.788 64.212,26.054 52,25.087L52,18.069C68.054,19.064 80.936,31.946 81.931,48ZM66.871,52C65.955,59.776 59.776,65.955 52,66.871L52,62L48,62L48,66.871C40.224,65.955 34.045,59.776 33.129,52L38,52L38,48L33.129,48C34.045,40.224 40.224,34.045 48,33.129L48,38L52,38L52,33.129C59.776,34.045 65.955,40.224 66.871,48L62,48L62,52L66.871,52ZM48,18.069L48,25.087C35.788,26.054 26.054,35.788 25.087,48L18.069,48C19.064,31.946 31.946,19.064 48,18.069ZM18.069,52L25.087,52C26.054,64.212 35.788,73.946 48,74.913L48,81.931C31.946,80.936 19.064,68.054 18.069,52ZM52,81.931L52,74.913C64.212,73.946 73.946,64.212 74.913,52L81.931,52C80.936,68.054 68.054,80.936 52,81.931Z" style="fill-rule: nonzero;"></path><circle cx="50" cy="50" r="5"></circle></g></svg>