<svg data-v-2986b0bb="" width="90%" height="90%" viewBox="0 0 80 99" version="1.1" xmlns="http://www.w3.org/2000/svg" xmlns:xlink="http://www.w3.org/1999/xlink" xml:space="preserve" xmlns:serif="http://www.serif.com/" aria-hidden="true" fill="#c33409" class="v-icon notranslate icon v-icon--is-component theme--dark" style="fill-rule: evenodd; clip-rule: evenodd; stroke-linejoin: round; stroke-miterlimit: 2; font-size: 16px; height: 16px;"><g transform="matrix(1,0,0,1,-9.98455,0)"><path d="M83.863,53.887C83.863,47.62 81.315,47.62 80.042,43.861C79.027,40.869 80.637,38.075 82.38,34.927C88.702,26.756 86.428,56.392 86.428,56.392C93.948,32.581 82.59,16.29 82.59,16.29C73.704,2.557 54.703,0.02 49.523,0.001L49.523,0L49.462,0L49.462,0.001C44.282,0.02 25.281,2.557 16.395,16.291C16.395,16.291 5.038,32.582 12.557,56.393C12.557,56.393 10.282,26.756 16.605,34.928C18.348,38.075 19.957,40.87 18.942,43.862C17.67,47.621 15.12,47.621 15.12,53.888C15.12,60.153 13.846,61.407 12.572,62.659C11.298,63.912 11.298,65.165 12.572,68.925C13.846,72.685 15.12,75.191 18.942,77.697C22.765,80.203 22.765,81.457 27.861,78.95C32.958,76.443 34.232,77.697 34.232,77.697C32.959,78.95 32.728,90.229 32.728,92.734C32.728,95.234 42.999,98.974 48.999,98.999L48.999,99L49.492,99C49.502,99 49,99 49,99L49,98.998C56,98.974 65.764,95.233 65.764,92.733C65.764,90.228 65.897,78.949 64.621,77.696C64.621,77.696 65.961,76.442 71.058,78.949C76.154,81.456 76.188,80.202 80.01,77.696C83.832,75.189 85.121,72.683 86.396,68.924C87.669,65.164 87.677,63.911 86.404,62.658C85.131,61.405 83.863,60.151 83.863,53.887ZM39.33,66.418C35.508,68.924 30.411,71.431 25.314,70.178C20.218,68.924 22.766,67.671 20.218,61.406C17.671,55.14 18.943,52.634 21.492,50.127C24.04,47.621 29.137,48.874 35.508,52.633C48.249,60.151 43.152,63.911 39.33,66.418ZM53.022,82.709C50.162,83.646 50,81.075 49,78.146L49,75.19C49,75.932 49.029,76.722 49,77.503C48.97,76.722 49,75.932 49,75.19L49,78.146C49,81.076 48.33,83.646 45.469,82.709C41.647,81.456 43.037,76.442 44.311,72.684C45.58,68.94 46.907,64.266 49.436,64.229C51.962,64.266 53.131,68.94 54.4,72.684C55.674,76.442 56.845,81.456 53.022,82.709ZM78.767,61.405C76.219,67.671 78.767,68.924 73.671,70.177C68.574,71.43 63.478,68.923 59.655,66.417C55.832,63.91 50.736,60.15 63.477,52.632C69.847,48.873 74.945,47.619 77.493,50.126C80.042,52.633 81.315,55.14 78.767,61.405Z" style="fill-rule: nonzero;"></path></g></svg>