<?xml version="1.0" encoding="utf-8"?>
<!-- Generator: Adobe Illustrator 23.0.3, SVG Export Plug-In . SVG Version: 6.00 Build 0)  -->
<svg version="1.1" xmlns="http://www.w3.org/2000/svg" xmlns:xlink="http://www.w3.org/1999/xlink" x="0px" y="0px"
	 viewBox="0 0 500 500" style="enable-background:new 0 0 500 500;" xml:space="preserve">
<style type="text/css">
	.st0{fill:none;}
</style>
<g id="REF">
	<path class="st0" d="M248.6,95.2c-86.3,0-156.3,70-156.3,156.3s70,156.3,156.3,156.3s156.3-70,156.3-156.3S334.9,95.2,248.6,95.2z
		 M248.6,282.7c-17.2,0-31.2-14-31.2-31.2c0-17.2,14-31.2,31.2-31.2s31.2,14,31.2,31.2C279.8,268.7,265.8,282.7,248.6,282.7z"/>
	<circle cx="248.6" cy="251.5" r="62.4"/>
	<path d="M0,375l248.6-125L0,125"/>
	<path d="M433.8,220.3c-13.2-78.7-75.3-140.9-154.1-154.1V1.5h-62.4v64.7c-48.2,8.1-90.2,34.5-118.5,71.8l29.1,14.1
		c28.7-34.8,72.1-56.9,120.7-56.9c86.3,0,156.3,70,156.3,156.3s-70,156.3-156.3,156.3c-49.6,0-93.8-23.1-122.4-59.1l-29,14
		c28.3,38.5,71,65.8,120.2,74v64.7h62.4v-64.7c78.7-13.2,140.9-75.3,154.1-154.1h64.7v-62.4H433.8z"/>
</g>
<g id="Layer_3">
</g>
<g id="BG">
</g>
<g id="Layer_4">
</g>
</svg>
