<?xml version="1.0" encoding="utf-8"?>
<!-- Generator: Adobe Illustrator 23.0.3, SVG Export Plug-In . SVG Version: 6.00 Build 0)  -->
<svg version="1.1" id="Layer_1" xmlns="http://www.w3.org/2000/svg" xmlns:xlink="http://www.w3.org/1999/xlink" x="0px" y="0px"
	 viewBox="0 0 1546 886" style="enable-background:new 0 0 1546 886;" xml:space="preserve">
<style type="text/css">
	.st0{fill:#FFFFFF;}
</style>
<path class="st0" d="M730.8,241.8c0.4,20.2-0.8,37.3-9,53.2c-2.1,4-4.8,7.7-7.2,11.6c4.3,0.9,8.7,1.3,12.8,2.7
	c26.3,8.7,49.6,22.4,69.3,42.1c10.8,10.8,22.7,20.6,32.7,32.2c10.1,11.7,19.6,24.4,27.3,37.8c16.8,29.3,23.5,62,28.1,95
	c3,21.7,6.1,43.8,5.7,65.6c-0.7,37.6-8.2,74.5-23,109.1c-9.6,22.5-22.9,43.3-40.7,60.7c-33.5,32.7-70.6,59.6-115.8,74.4
	c-20.9,6.9-42.2,11-64.1,11.6c-21.5,0.6-43.2,1.1-64.6-0.2c-14.4-0.9-28.6-5.2-42.9-7.9c-0.9-0.2-1.8-0.6-2.8-1
	c0.9-0.7,1.7-1.4,2.6-2c22.8-15.6,45.2-31.8,60.7-55.1c10-15,14.7-32.6,16.1-50.6c0.8-9.5,0.2-19.1,0.1-28.6
	c-0.1-4.9-0.8-7.4-7.3-5.1c-19.7,6.9-39.5,14.1-59.8,18.7c-18.2,4.1-37.1,5.4-55.7,6.8c-18.7,1.4-37.4,2.3-56.1,1.9
	c-14.6-0.3-29.1-2.7-43.6-4.8c-19.9-3-39.9-5.9-59.6-10.1c-43.2-9.2-85.2-23-124.5-43.1c-36.3-18.6-71.3-40.4-96.6-73.5
	c-16.7-21.9-31.1-45.5-46.6-68.3c-3.4-5.1-1.3-5.8,4-6.9c49.5-10.6,98.7-22.1,145.7-41.2c35.8-14.5,71.8-28.6,107.5-43.5
	c20.6-8.6,41.2-17.2,60.9-27.5c27.8-14.5,54.8-30.4,82.1-45.9c1-0.5,1.6-3.6,1-4.6c-10.8-18.7-15.7-39.1-16.2-60.3
	c-0.5-21.9,2.6-43.4,15.6-62.1c0.6-0.8,3.6-1.1,4.3-0.5c9.5,9.8,18.8,19.9,28.2,29.8c0.3,0.4,2.4-0.1,2.6-0.6
	c4.7-18.2,12.4-34.7,25.6-48.6c14.3-15,30.1-27.4,51.2-29.7c8.5-0.9,17.6,0.8,26.1,2.8c11.1,2.6,21.8,6.8,32.8,9.9
	c1,0.3,3.8-2.1,4.2-3.7c4.3-18,8.2-36,12.4-54c0.2-0.9,2.5-2.3,3.2-2c29.8,13.1,50.3,35.2,62.4,65.3
	C726.8,208.5,733.4,225.5,730.8,241.8z"/>
<path class="st0" d="M1190.1,495.7c-23.6,0-47.2,0.1-70.8-0.2c-1.4,0-3.8-2.3-4.1-3.8c-7.9-46.7-14.6-93.8-31.2-138.5
	c-6-16.1-13.3-31.9-20.9-47.3c-1.5-3-7-5.3-10.9-5.8c-28-3.7-56.1-7.2-84.2-10.1c-18.5-1.9-37.2-3.1-55.8-4
	c-16.5-0.8-33-0.8-49.5-1.1c-19.3-0.4-38.6-1.3-57.8-0.8c-22.3,0.6-44.6,2.5-66.8,3.8c-3.8,0.2-7.9,1.3-4.4-5.4
	c2.7-5.1,2.8-11.8,5.9-16.6c3.7-5.7,8.8-11.1,14.5-14.9c22.6-15.1,44.9-31,68.9-43.7c21.9-11.5,45.3-21.1,69-28.1
	c29.7-8.8,61.2-11.4,91.8-7.5c26.6,3.3,52.7,11.4,78.8,18.3c44.3,11.7,88.4,24,132.6,36.1c20.2,5.5,40.3,11.3,60.7,16.2
	c12.5,3,25.4,5.7,38.2,6.5c30.5,2,59.1-7,87.2-17.7c34.9-13.4,66.7-32.3,96.8-54.1c7.9-5.7,14.9-12.5,22.4-18.7
	c0.7-0.5,1.5-0.8,2.3-1.2c-0.2,0.8-0.4,1.5-0.6,2.3c-7.2,22.8-14.6,45.5-21.5,68.4c-12.3,40.8-28.8,79.9-47.7,117.9
	c-16.3,32.9-37.8,62.6-60.7,91.3c-11.6,14.6-24.7,28-36.8,42.2c-6.9,8.1-16.7,6.7-25.3,8.2C1270.4,494.6,1230.5,498.7,1190.1,495.7z
	"/>
<path class="st0" d="M769.6,289.1c24.9,0,49.9-0.3,74.8,0.1c23.2,0.3,46.5,0.8,69.6,2.1c25.5,1.4,51,3.3,76.4,6.1
	c19.5,2.1,38.9,5.4,58.2,9.1c3.9,0.8,8.8,4.9,10.3,8.6c10,25.8,20.2,51.5,28.4,77.9c4.4,14.2,5.8,29.6,7.3,44.6
	c3.4,33.2,6.2,66.6,9.1,99.8c0.8,9.2,1.2,18.4,2.1,27.6c0.1,1.1,1.8,2.7,3.1,3c26.1,7.1,52.8,3,79.2,4.1c17,0.7,34.1,1.3,51.1,2
	c0.8,0,1.6,0.3,2.3,0.4c-0.4,0.8-0.8,1.7-1.4,2.4c-17.2,21.5-36.9,40.3-59.3,56.5c-38.1,27.7-78.1,52-120,73.4
	c-17.1,8.7-35,10.8-54,7.3c-10-1.8-20.5-0.7-30.6-2.5c-22.4-3.8-44.6-8.6-66.9-13.1c-3.8-0.8-7.4-3.2-11.2-3.4
	c-8.7-0.4-6.9-4.2-5.6-10.5c5-23.5,10.6-47.1,13-71c4.8-49-1.6-97.2-17.9-143.6c-14.1-40.1-33.4-77.5-65.8-106.7
	c-17.7-15.9-35.7-31.3-57.1-42c-12.4-6.2-24.9-12.3-37.3-18.5c-0.8-0.4-1.7-2.2-1.4-2.9c2.1-5.4,4.6-8.8,12.1-9
	C748.3,290.6,757.9,289.7,769.6,289.1C769.6,288.5,769.6,289.8,769.6,289.1z"/>
</svg>
