<?xml version="1.0" encoding="utf-8"?>
<!-- Generator: Adobe Illustrator 23.0.3, SVG Export Plug-In . SVG Version: 6.00 Build 0)  -->
<svg version="1.1" id="Layer_1" xmlns="http://www.w3.org/2000/svg" xmlns:xlink="http://www.w3.org/1999/xlink" x="0px" y="0px"
	 viewBox="0 0 1546 886" style="enable-background:new 0 0 1546 886;" xml:space="preserve">
<style type="text/css">
	.st0{fill:#FFFFFF;}
</style>
<path class="st0" d="M438.3,531.4c6.1,1.2,9.5,5.7,14,8.6c9.4,6.1,19.2,11,30.7,12.3c11.2,1.3,22.4,1.7,33.7,2
	c10.3,0.2,19.5-2.9,28.7-6.7c9.2-3.7,17.5-9,25.6-14.6c7.4-5.1,11.6-12.4,16.2-19.6c3.2-5,6.6-9.8,10-14.6c0.5-0.7,1.7-1.4,2.4-1.3
	c12.8,2,25.7,3.3,38,7.7c1.5,0.5,3.2,0.7,3.4,3c0.1,2.1-0.8,3.6-2.5,4.5c-3.3,1.5-6.6,3-10,4.2c-8.8,3.1-17.7,6-26.5,9.1
	c-3.2,1.1-5.3,3-6.5,6.6c-4.4,12.9-10.3,25.2-18.9,36c-8.5,10.7-18.5,19.5-32,23.6c-10.5,3.2-20.9,3.3-31.7,1.2
	c-14.5-2.9-27.4-8.8-39.3-17.3c-8.9-6.4-16.7-14.1-23.2-22.9C445.3,546.5,440.4,540,438.3,531.4z"/>
<path class="st0" d="M580.4,239.6c-2.9-1.5-5.7-2.7-8.2-4.3c-5.2-3.4-10.3-7-15.4-10.6c-2.2-1.5-3.7-3.4-3.4-6.1
	c0.3-2.5,3.4-5.2,5.9-5.3c1.2-0.1,2.5,0.5,3.5,1.3c4.1,3.1,8,6.4,12.1,9.5c4.5,3.4,6.6,2.8,9.2-2.5c2.2-4.3,4.2-8.6,6.5-12.8
	c1.2-2.3,3.2-3.7,6-3.8c3.2-0.1,5,1.8,4.4,4.9c-0.3,1.6-0.5,3.4-1.1,4.8c-3.4,7.7-6.3,15.7-12.6,21.6
	C585.7,237.9,583.1,238.4,580.4,239.6z"/>
<path class="st0" d="M154.1,533.6c-0.8,6.4-1.5,12.7-2.4,19.1c-0.4,2.9-4,4.1-6.8,2.4c-7.5-4.5-14.6-9.5-20.8-15.8
	c-3.7-3.7-2.9-8.1,2-9.7c7.6-2.4,15.5-4.3,23.2-6.3c2.3-0.6,3.9,0.7,4.1,3.2c0.2,2.3,0.3,4.7,0.4,7
	C154,533.6,154.1,533.6,154.1,533.6z"/>
<path class="st0" d="M513.1,247.7c2.8-4.7,5.3-8.7,7.7-12.7c2.1-3.6,4.3-4.5,7.6-3.1c3.7,1.7,4.7,4.2,2.9,8.1
	c-1.3,2.8-3,5.4-4.5,8.2c-1.7,3.2-3.4,6.3-4.8,9.6c-2.1,5.1-6.4,6.8-10.7,3.6c-4.7-3.5-9.4-7.1-13.9-10.9c-3.9-3.3-4.1-9.2-0.3-11.3
	c3-1.6,5-1.3,7.5,1.1C507.2,242.8,510.1,245.1,513.1,247.7z"/>
<path class="st0" d="M550.4,272.4c-2.3,3.4-4.4,6.7-6.7,9.8c-1.2,1.7-2.3,3.7-4.9,3.6c-4-0.2-6.1-4.2-3.9-7.9
	c2.8-4.6,5.6-9.2,8.7-13.6c3-4.4,6.3-4.8,10.6-1.4c3,2.3,6.1,4.5,8.9,7c3.2,2.9,2.4,7.4-1.5,8.5c-1.2,0.3-2.9,0-4-0.7
	C555.3,276.4,553.4,274.6,550.4,272.4z"/>
<path class="st0" d="M446,703.1c0.4-1.5,0.4-2.8,0.9-2.9c4.8-1.8,8.2-6.5,14.1-6.1c3.3,0.2,6.8-1,10.2-1.3c2.4-0.3,4.9-0.5,7.4-0.4
	c2.8,0.1,4.4,2.2,5.2,4.6c0.7,2.2-0.9,5.1-3.1,5.2C469.2,702.5,457.8,702.7,446,703.1z"/>
</svg>
