<?xml version="1.0" encoding="utf-8"?>
<!-- Generator: Adobe Illustrator 23.0.3, SVG Export Plug-In . SVG Version: 6.00 Build 0)  -->
<svg version="1.1" id="Layer_1" xmlns="http://www.w3.org/2000/svg" xmlns:xlink="http://www.w3.org/1999/xlink" x="0px" y="0px"
	 viewBox="0 0 1546 886" style="enable-background:new 0 0 1546 886;" xml:space="preserve">
<style type="text/css">
	.st0{fill:#FFFFFF;}
</style>
<path class="st0" d="M699.3,420.5c-11.8-10.3-23.5-20.7-35.4-30.7c-16.2-13.6-37-18-55.3-27.5c-16.3-8.5-33.5-15.3-50.2-22.8
	c-8.8-4-17.6-8.1-26.8-12.3c25.8-16.7,54.1-26.5,83.1-34.2c14.9-4,30-8.3,45.3-9.7c11.4-1,19-5.3,26.4-13.4
	c14.5-15.7,29-31.7,45.4-45.2c24.2-19.8,49.3-38.8,75.7-55.5c28.2-17.9,60.3-27,93.5-32.1c25.9-4,51.2,0.1,76.6,3.3
	c27.6,3.5,55.1,7.5,82.7,11.4c29.5,4.1,58.9,8.6,88.5,12.3c21.2,2.7,42.7,5.4,64,0.8c19.8-4.3,37.9-12.8,55.6-22.4
	c37.2-20.1,69.7-46.4,100.2-75.3c7.5-7.1,14.1-15.2,22-23.9c-1.8,7.8-3.2,14.3-5,20.8c-15.3,58.3-32.9,116-57.2,171.1
	c-26.8,60.8-55.9,120.6-84.9,180.4c-8.3,17.1-17.9,34-32.6,46.9c-17.4,15.2-36.2,29.4-59.4,32.7c-20.9,3-42.4,2.1-63.6,2.4
	c-5.6,0.1-7.6,0.7-6.4,7.2c1.4,7.6,0.7,15.5,1.3,23.3c0.1,1.2,2,3,3.4,3.3c19.4,4.9,38.9,1.1,58.4,0.2c22.8-1,45.6-2.1,70.1-3.2
	c-16.3,21.6-31.6,41.6-51.9,57.1c-25.5,19.5-50.2,40.2-76.6,58.3c-21.5,14.7-39.3,25.9-58.1,35.8c-7.1,3.7-13.3,6.8-23.9,10.6
	c-9.9,3.3-2.8,0.9-19.2,6.3c-16.2,4-5,1.4-21.1,5.1c-6.4,1.3-7.1,1.3-17.8,2.1c-9.9,0.7-19.5-0.7-25-1.4
	c-11.3-2.3-32.2-8.1-43.4-14.4c-7.9-4.4-16-8.3-23.9-12.7c-1.7-0.9-3.5-3.4-3.5-5.1c-4-8.1-4.5-10.1-10.2-15.8c-1-0.2-2.3-1.9-2.4-3
	c-0.3-22.4-9.2-42.7-17.4-62.7c-12.6-30.5-26.7-60.5-46.9-87c-6-7.9-12.1-15.8-19.7-22.9c0.8,8.8,1.3,17.6,2.5,26.3
	c2.2,15.7,3.6,31.2,0.8,47c-2.7,15.2-2.9,30.9-6.5,45.8c-6.9,28.1-16.4,55.6-32.8,79.7c-13.8,20.4-30.8,37.9-50.6,53
	c-19.9,15.2-39.8,30.3-63.2,39.8c-22.5,9.2-45,18.3-69.7,19.6c-18.5,1-37,3.2-55.5,2.7c-24.9-0.6-50.2,0.1-72.9-9.8
	c12.2-9.9,24.9-20.4,37.8-30.6c19.7-15.5,31.9-35.5,37.5-59.8c4.1-17.9,5.2-35.7,1.2-53.7c-0.6-2.8,0.6-6.4,1.9-9.1
	c5.9-11.6,14.5-20.7,25.4-27.8c1.9-1.2,2.4-4.4,3.9-6.5c27.6-40.8,55.2-81.6,82.7-122.5c3.7-5.5,5.9-12.2,10.3-17
	c6-6.6,13-12.4,20.2-17.5c17-12,36-17.7,57-16c4.8,0.4,9.6,0.1,14.5,0.1C698.6,421.6,698.9,421.1,699.3,420.5z"/>
</svg>
